# xmcd CD database file
# Copyright (C) 1993-1998 Ti Kan
#
# Track frame offsets:
# 150
# 12362
# 25637
# 39437
# 50312
# 62162
# 72212
# 81362
# 92237
# 105737
# 121037
# 131837
#
# Disc length: 1906 seconds
#
# Revision: 0
# Processed by: cddbd v1.4b41PL1 Copyright (c) Steve Scherf et al.
# Submitted via: inCDius 1.1d1
#
DISCID=9907700c
DTITLE=Willie Nelson - Sweet Memories - 36 All-Time Favorites Vol 3
DYEAR=1900
DGENRE=
TTITLE0=Wabash Cannonball
TTITLE1=Help Me Make It Through The Night
TTITLE2=The Year That Clayton Delaney Died
TTITLE3=I'm So Lonesome I Could Cry
TTITLE4=One Has My Name (The Other Has My Heart)
TTITLE5=I Gotta Get Drunk
TTITLE6=Blackjack County Chain
TTITLE7=I'd Trade All My Tomorrows (For Just One Yesterday)
TTITLE8=Fire And Rain
TTITLE9=Everybody's Talkin'
TTITLE10=I'm A Memory
TTITLE11=The Party's Over
EXTD=
EXTT0=
EXTT1=
EXTT2=
EXTT3=
EXTT4=
EXTT5=
EXTT6=
EXTT7=
EXTT8=
EXTT9=
EXTT10=
EXTT11=
PLAYORDER=
